<svg width="510" height="510" viewBox="0 0 510 510" fill="none" xmlns="http://www.w3.org/2000/svg">
<path d="M254.984 391.4C388.629 391.4 496.969 333.809 496.969 262.766C496.969 191.724 388.629 134.133 254.984 134.133C121.34 134.133 13 191.724 13 262.766C13 333.809 121.34 391.4 254.984 391.4Z" fill="#A34843"/>
<path d="M496.969 247.483H13.4244V267.861H496.969V247.483Z" fill="#A34843"/>
<path d="M254.984 376.117C388.629 376.117 496.969 318.525 496.969 247.483C496.969 176.44 388.629 118.849 254.984 118.849C121.34 118.849 13 176.44 13 247.483C13 318.525 121.34 376.117 254.984 376.117Z" fill="#C15F5F"/>
<path d="M254.985 356.164C133.143 356.164 33.8022 306.069 33.8022 244.087C33.8022 182.53 133.143 132.01 254.985 132.01C376.826 132.01 476.167 182.105 476.167 244.087C476.167 306.069 376.826 356.164 254.985 356.164ZM254.985 137.529C136.115 137.529 39.3212 185.501 39.3212 244.087C39.3212 302.673 136.115 350.645 254.985 350.645C373.854 350.645 470.648 302.673 470.648 244.087C470.648 185.501 373.854 137.529 254.985 137.529Z" fill="#A34843"/>
<path d="M473.195 203.331C478.714 212.246 481.686 222.011 481.686 233.473C481.686 252.577 478.714 270.407 461.733 287.813C444.751 305.219 413.76 322.625 387.439 332.814C363.241 342.154 344.561 339.607 313.146 343.852C296.165 345.975 275.362 352.343 257.107 352.343C215.928 352.343 182.389 343.003 149.276 332.814C125.077 325.172 110.643 325.172 81.7747 307.342C66.916 298.427 61.3971 285.691 51.6329 275.502C38.0478 261.492 33.3779 248.332 33.3779 233.473C33.3779 214.793 43.9912 194.416 58.4254 178.708C66.4915 169.793 75.8313 160.453 87.2937 152.812C71.5859 161.302 58.8499 173.614 48.6611 184.652C33.8024 200.784 22.7645 222.011 22.7645 241.115C22.7645 256.398 27.8589 270.407 41.8686 284.842C52.0574 295.455 58.0009 308.616 72.8596 317.955C103.001 336.635 117.86 336.635 142.908 344.276C177.295 354.89 212.107 364.654 254.56 364.654C273.24 364.654 294.891 357.861 312.297 355.739C344.561 351.493 364.09 354.041 389.137 344.276C415.883 333.663 448.148 315.833 465.978 297.578C483.384 279.323 486.78 261.068 486.78 241.115C487.205 226.68 482.11 214.794 473.195 203.331Z" fill="#F4B12C"/>
<path d="M58.8498 178.708C44.4156 194.416 33.8022 214.794 33.8022 233.473C33.8022 248.332 38.8967 261.493 52.0572 275.502C61.8215 285.691 67.3405 298.427 82.1992 307.342C111.492 325.173 125.926 325.173 149.7 332.814C182.814 343.003 216.352 352.343 257.532 352.343C275.787 352.343 296.589 345.975 313.57 343.852C344.561 340.031 363.665 342.154 387.864 332.814C413.76 322.625 445.176 305.22 462.157 287.814C479.139 270.408 482.11 252.577 482.11 233.473C482.11 222.011 479.139 212.671 473.62 203.331C468.525 196.963 462.157 190.595 454.516 183.803C440.506 171.491 422.251 154.51 401.024 145.17C378.099 135.406 351.778 126.066 322.91 123.094C294.466 120.547 270.692 118 247.343 118C192.153 118 156.917 132.01 111.068 143.472C102.577 145.595 94.9352 148.991 87.7181 152.812C76.2557 160.453 66.9159 169.793 58.8498 178.708Z" fill="#FFCA61"/>
<path opacity="0.5" d="M154.794 143.047C151.823 143.047 119.133 145.17 105.973 150.688C93.6614 155.783 85.1707 165.123 75.831 174.038C59.2742 189.746 37.1984 204.604 45.2646 230.501C46.1136 233.897 51.208 232.624 50.3589 229.227C48.6608 221.586 58.0006 205.029 63.095 199.085C66.0667 195.689 69.8875 193.142 73.2838 190.17C81.3499 182.953 89.4161 175.311 98.3313 168.943C115.313 157.481 136.539 154.934 154.794 146.019C156.917 145.17 156.492 142.622 154.794 143.047Z" fill="#FFE3A6"/>
<path opacity="0.5" d="M342.863 142.622C338.618 142.198 334.797 141.349 330.552 140.075C307.627 132.858 286.4 124.792 261.777 126.915C254.136 127.339 223.994 126.066 224.843 139.651C226.116 154.509 254.56 142.622 260.928 141.349C280.881 137.528 298.712 142.198 317.816 146.868C328.004 149.415 334.372 151.538 343.712 146.443C344.561 145.594 344.561 142.622 342.863 142.622Z" fill="#FFE3A6"/>
<path opacity="0.5" d="M412.486 306.493C408.241 304.37 404.42 306.068 400.175 307.766C389.561 309.04 363.665 315.408 369.184 324.747C372.58 330.266 386.59 323.898 390.835 322.625C399.326 320.502 406.967 317.53 412.911 310.738C414.184 309.889 414.184 307.766 412.486 306.493Z" fill="#FFE3A6"/>
<path opacity="0.5" d="M458.761 273.804C454.091 274.653 450.27 278.898 446.449 281.87C441.779 286.115 427.77 298.427 426.921 299.7C425.223 301.398 427.345 303.521 429.468 302.672C435.836 299.7 443.053 297.153 448.996 292.908C454.091 289.087 458.761 283.143 461.733 277.2C462.582 275.502 460.883 273.804 458.761 273.804Z" fill="#FFE3A6"/>
<path opacity="0.5" d="M291.07 332.814C290.221 332.389 289.372 332.389 288.523 331.965C288.523 331.965 288.523 331.54 288.098 331.54C284.278 328.993 277.06 331.116 272.815 332.389C268.994 334.088 264.749 335.786 264.749 340.456C264.749 341.729 265.598 342.578 266.872 343.003C275.787 344.701 284.278 343.003 291.495 337.484C294.042 336.635 293.617 333.663 291.07 332.814Z" fill="#FFE3A6"/>
<path opacity="0.5" d="M443.477 186.349C439.657 178.283 415.883 161.302 411.637 160.028C409.515 159.179 407.392 161.726 408.241 163.424C409.515 166.821 411.637 168.519 414.609 170.641C418.43 173.613 420.553 177.434 423.1 181.679C427.345 188.896 433.713 191.868 441.779 190.17C443.902 189.745 444.327 187.623 443.477 186.349Z" fill="#FFE3A6"/>
<path opacity="0.5" d="M471.497 220.736L471.072 220.312C471.072 219.887 470.223 219.038 469.799 219.463C464.704 222.435 467.252 226.255 467.252 231.35C467.252 234.746 464.28 241.963 468.95 244.086C476.591 247.907 473.195 224.133 471.497 220.736Z" fill="#FFE3A6"/>
<path opacity="0.5" d="M88.1426 298.851C87.2935 298.002 78.3784 287.389 72.8594 284.417C72.0103 283.993 70.3122 283.993 69.4631 284.842C65.6423 289.087 70.7367 293.333 73.7085 295.88C77.5293 298.851 82.1991 302.248 87.2935 301.399C88.5671 300.974 88.9917 299.276 88.1426 298.851Z" fill="#FFE3A6"/>
<path opacity="0.5" d="M148.426 155.784C131.869 156.208 122.954 167.671 119.133 174.039C115.737 179.982 99.1802 190.595 84.746 195.69C63.9438 202.907 56.3022 214.369 56.3022 231.775C56.3022 241.964 77.529 251.728 78.8026 266.163C80.9252 292.059 103.85 306.493 124.652 308.616C145.03 310.314 215.078 318.38 226.116 324.748C237.154 331.541 274.513 318.805 290.221 325.173C305.928 331.541 348.806 303.522 357.721 305.22C366.212 306.918 414.609 302.673 433.289 287.814C451.968 273.38 451.543 276.776 456.638 255.125C459.61 241.54 466.402 224.134 456.638 211.822C445.175 197.813 427.345 199.086 416.307 183.803C405.269 168.52 401.024 164.274 374.278 157.057C347.533 149.416 300.834 159.605 288.947 159.18C277.06 159.18 265.598 142.199 238.852 141.774C212.531 141.35 148.426 155.784 148.426 155.784Z" fill="#EF622B"/>
<path opacity="0.8" d="M177.294 161.303C162.86 166.822 144.605 193.143 130.171 199.086C115.737 205.454 84.3214 198.662 84.746 232.2C85.1705 265.738 101.727 274.229 112.765 286.541C123.803 298.852 173.049 307.343 187.908 306.918C202.342 306.494 253.286 319.654 279.183 308.616C305.079 298.003 322.061 305.22 339.891 300.975C357.721 296.729 393.382 287.814 402.722 275.503C412.062 263.191 453.242 249.606 436.26 228.804C419.279 208.002 406.118 207.153 398.052 199.086C389.986 191.02 400.175 178.284 367.486 172.765C334.372 167.246 295.739 175.737 281.73 167.246C267.72 158.756 262.626 152.388 234.182 155.359C206.163 158.756 191.729 155.784 177.294 161.303Z" fill="#ED2B2B"/>
<path d="M265.598 318.38H180.691V323.05H265.598V318.38Z" fill="#5E8E11"/>
<path d="M223.144 344.701C246.591 344.701 265.598 334.627 265.598 322.2C265.598 309.774 246.591 299.7 223.144 299.7C199.698 299.7 180.691 309.774 180.691 322.2C180.691 334.627 199.698 344.701 223.144 344.701Z" fill="#5E8E11"/>
<path d="M223.144 340.88C246.591 340.88 265.598 330.806 265.598 318.38C265.598 305.953 246.591 295.879 223.144 295.879C199.698 295.879 180.691 305.953 180.691 318.38C180.691 330.806 199.698 340.88 223.144 340.88Z" fill="#BED134"/>
<path d="M223.144 337.484C244.246 337.484 261.353 328.931 261.353 318.38C261.353 307.829 244.246 299.276 223.144 299.276C202.043 299.276 184.936 307.829 184.936 318.38C184.936 328.931 202.043 337.484 223.144 337.484Z" fill="#71AA21"/>
<path d="M221.446 316.682C221.446 316.682 213.38 306.068 202.767 306.917C188.757 308.191 190.455 312.861 194.276 316.682C197.672 320.502 209.984 320.078 221.446 316.682Z" fill="#5E8E11"/>
<path d="M224.418 316.681C224.418 316.681 234.183 308.19 244.796 308.19C255.834 308.19 256.258 312.86 252.862 317.106C248.192 321.776 235.881 319.653 224.418 316.681Z" fill="#5E8E11"/>
<path d="M221.446 318.38C221.446 318.38 206.163 322.2 201.493 323.899C196.823 325.597 201.069 331.965 210.833 332.389C223.144 332.389 221.446 318.38 221.446 318.38Z" fill="#5E8E11"/>
<path d="M223.994 318.38C223.994 318.38 239.701 321.776 243.947 323.899C249.466 326.446 241.824 331.965 232.06 332.389C219.748 332.389 223.994 318.38 223.994 318.38Z" fill="#5E8E11"/>
<path d="M223.144 314.984C223.144 314.984 216.776 309.04 215.078 306.917C213.805 304.795 216.776 301.823 224.418 301.398C234.607 301.398 235.456 304.37 232.06 308.191C228.663 312.012 223.144 314.984 223.144 314.984Z" fill="#5E8E11"/>
<path d="M340.74 222.86H255.833V227.53H340.74V222.86Z" fill="#5E8E11"/>
<path d="M298.287 248.756C321.733 248.756 340.74 238.682 340.74 226.256C340.74 213.829 321.733 203.756 298.287 203.756C274.84 203.756 255.833 213.829 255.833 226.256C255.833 238.682 274.84 248.756 298.287 248.756Z" fill="#5E8E11"/>
<path d="M298.287 245.36C321.733 245.36 340.74 235.286 340.74 222.859C340.74 210.433 321.733 200.359 298.287 200.359C274.84 200.359 255.833 210.433 255.833 222.859C255.833 235.286 274.84 245.36 298.287 245.36Z" fill="#BED134"/>
<path d="M298.287 241.964C319.389 241.964 336.495 233.411 336.495 222.86C336.495 212.309 319.389 203.756 298.287 203.756C277.185 203.756 260.079 212.309 260.079 222.86C260.079 233.411 277.185 241.964 298.287 241.964Z" fill="#71AA21"/>
<path d="M296.589 221.161C296.589 221.161 288.522 210.548 277.909 211.397C263.899 212.671 265.598 217.34 269.418 221.161C272.815 224.982 285.126 224.133 296.589 221.161Z" fill="#5E8E11"/>
<path d="M299.561 221.161C299.561 221.161 309.325 212.67 319.938 212.67C330.976 212.67 331.401 217.34 328.004 221.585C323.335 226.255 311.023 224.133 299.561 221.161Z" fill="#5E8E11"/>
<path d="M296.589 222.86C296.589 222.86 281.305 226.681 276.635 228.379C271.966 230.077 276.211 236.445 285.975 236.869C298.287 236.869 296.589 222.86 296.589 222.86Z" fill="#5E8E11"/>
<path d="M299.136 222.86C299.136 222.86 314.844 226.256 319.089 228.379C324.608 230.926 316.966 236.445 307.202 236.869C294.891 236.869 299.136 222.86 299.136 222.86Z" fill="#5E8E11"/>
<path d="M298.287 219.038C298.287 219.038 291.919 213.095 290.221 210.972C288.947 208.85 291.919 205.878 299.56 205.453C309.749 205.453 310.598 208.425 307.202 212.246C303.806 216.067 298.287 219.038 298.287 219.038Z" fill="#5E8E11"/>
<path d="M165.832 191.87H80.9254V196.54H165.832V191.87Z" fill="#5E8E11"/>
<path d="M123.379 218.19C146.825 218.19 165.832 208.116 165.832 195.69C165.832 183.263 146.825 173.189 123.379 173.189C99.9325 173.189 80.9254 183.263 80.9254 195.69C80.9254 208.116 99.9325 218.19 123.379 218.19Z" fill="#5E8E11"/>
<path d="M123.379 214.37C146.825 214.37 165.832 204.296 165.832 191.869C165.832 179.443 146.825 169.369 123.379 169.369C99.9325 169.369 80.9254 179.443 80.9254 191.869C80.9254 204.296 99.9325 214.37 123.379 214.37Z" fill="#BED134"/>
<path d="M123.379 210.974C144.48 210.974 161.587 202.421 161.587 191.87C161.587 181.319 144.48 172.766 123.379 172.766C102.277 172.766 85.1707 181.319 85.1707 191.87C85.1707 202.421 102.277 210.974 123.379 210.974Z" fill="#71AA21"/>
<path d="M121.256 190.171C121.256 190.171 113.19 179.558 102.576 180.407C88.5669 181.681 90.265 186.35 94.0858 190.171C97.9066 193.992 110.218 193.568 121.256 190.171Z" fill="#5E8E11"/>
<path d="M124.653 190.171C124.653 190.171 134.417 181.68 145.03 181.68C156.068 181.68 156.493 186.35 153.096 190.595C148.002 195.265 136.115 193.143 124.653 190.171Z" fill="#5E8E11"/>
<path d="M121.256 191.87C121.256 191.87 105.973 195.69 101.303 197.389C96.6333 199.087 100.879 205.455 110.643 205.879C123.379 205.879 121.256 191.87 121.256 191.87Z" fill="#5E8E11"/>
<path d="M124.228 191.87C124.228 191.87 139.936 195.266 144.181 197.389C149.7 199.936 142.059 205.455 132.294 205.879C119.558 205.879 124.228 191.87 124.228 191.87Z" fill="#5E8E11"/>
<path d="M123.379 188.473C123.379 188.473 117.011 182.53 115.313 180.407C114.039 178.284 117.011 175.313 124.652 174.888C134.841 174.888 135.69 177.86 132.294 181.681C128.898 185.502 123.379 188.473 123.379 188.473Z" fill="#5E8E11"/>
<path d="M204.889 256.398H119.982V261.068H204.889V256.398Z" fill="#5E8E11"/>
<path d="M162.436 282.719C185.882 282.719 204.889 272.645 204.889 260.219C204.889 247.792 185.882 237.718 162.436 237.718C138.989 237.718 119.982 247.792 119.982 260.219C119.982 272.645 138.989 282.719 162.436 282.719Z" fill="#5E8E11"/>
<path d="M162.436 279.323C185.882 279.323 204.889 269.249 204.889 256.822C204.889 244.396 185.882 234.322 162.436 234.322C138.989 234.322 119.982 244.396 119.982 256.822C119.982 269.249 138.989 279.323 162.436 279.323Z" fill="#BED134"/>
<path d="M162.436 275.926C183.538 275.926 200.644 267.373 200.644 256.822C200.644 246.271 183.538 237.718 162.436 237.718C141.334 237.718 124.228 246.271 124.228 256.822C124.228 267.373 141.334 275.926 162.436 275.926Z" fill="#71AA21"/>
<path d="M160.313 255.124C160.313 255.124 152.247 244.511 141.634 245.36C127.624 246.633 129.322 251.303 133.143 255.124C136.964 258.945 149.275 258.096 160.313 255.124Z" fill="#5E8E11"/>
<path d="M163.71 255.124C163.71 255.124 173.474 246.633 184.087 246.633C195.125 246.633 195.55 251.303 192.153 255.548C187.059 259.794 175.172 258.095 163.71 255.124Z" fill="#5E8E11"/>
<path d="M160.313 256.823C160.313 256.823 145.03 260.643 140.36 262.341C135.69 264.04 139.936 270.408 149.7 270.832C162.011 270.408 160.313 256.823 160.313 256.823Z" fill="#5E8E11"/>
<path d="M163.285 256.823C163.285 256.823 178.993 260.219 183.238 262.341C188.757 264.889 181.116 270.408 171.351 270.832C158.615 270.408 163.285 256.823 163.285 256.823Z" fill="#5E8E11"/>
<path d="M162.436 253.001C162.436 253.001 156.068 247.058 154.37 244.935C153.096 242.812 156.068 239.841 163.709 239.416C173.898 239.416 174.747 242.388 171.351 246.209C167.955 250.029 162.436 253.001 162.436 253.001Z" fill="#5E8E11"/>
<path d="M255.833 186.774H170.927V191.444H255.833V186.774Z" fill="#5E8E11"/>
<path d="M213.38 213.096C236.826 213.096 255.833 203.022 255.833 190.595C255.833 178.169 236.826 168.095 213.38 168.095C189.934 168.095 170.927 178.169 170.927 190.595C170.927 203.022 189.934 213.096 213.38 213.096Z" fill="#5E8E11"/>
<path d="M213.38 209.699C236.826 209.699 255.833 199.626 255.833 187.199C255.833 174.772 236.826 164.699 213.38 164.699C189.934 164.699 170.927 174.772 170.927 187.199C170.927 199.626 189.934 209.699 213.38 209.699Z" fill="#BED134"/>
<path d="M213.38 206.303C234.482 206.303 251.588 197.75 251.588 187.199C251.588 176.648 234.482 168.095 213.38 168.095C192.278 168.095 175.172 176.648 175.172 187.199C175.172 197.75 192.278 206.303 213.38 206.303Z" fill="#71AA21"/>
<path d="M211.257 185.501C211.257 185.501 203.191 174.888 192.578 175.737C178.568 177.01 180.266 181.68 184.087 185.501C187.908 188.897 199.795 188.473 211.257 185.501Z" fill="#5E8E11"/>
<path d="M214.654 185.5C214.654 185.5 224.418 177.01 235.031 177.01C246.069 177.01 246.494 181.68 243.098 185.925C238.003 190.17 225.692 188.472 214.654 185.5Z" fill="#5E8E11"/>
<path d="M211.257 187.199C211.257 187.199 195.974 191.02 191.304 192.718C186.634 194.416 190.88 200.784 200.644 201.209C212.955 200.784 211.257 187.199 211.257 187.199Z" fill="#5E8E11"/>
<path d="M214.229 187.199C214.229 187.199 229.937 190.595 234.182 192.718C239.701 195.265 232.06 200.784 222.295 201.209C209.559 200.784 214.229 187.199 214.229 187.199Z" fill="#5E8E11"/>
<path d="M213.38 183.378C213.38 183.378 207.012 177.435 205.314 175.312C204.04 173.189 207.012 170.218 214.654 169.793C224.842 169.793 225.691 172.765 222.295 176.586C218.899 180.406 213.38 183.378 213.38 183.378Z" fill="#5E8E11"/>
<path d="M339.891 160.878H254.984V165.548H339.891V160.878Z" fill="#5E8E11"/>
<path d="M297.438 187.199C320.884 187.199 339.891 177.125 339.891 164.698C339.891 152.272 320.884 142.198 297.438 142.198C273.992 142.198 254.984 152.272 254.984 164.698C254.984 177.125 273.992 187.199 297.438 187.199Z" fill="#5E8E11"/>
<path d="M297.438 183.379C320.884 183.379 339.891 173.305 339.891 160.878C339.891 148.452 320.884 138.378 297.438 138.378C273.992 138.378 254.984 148.452 254.984 160.878C254.984 173.305 273.992 183.379 297.438 183.379Z" fill="#BED134"/>
<path d="M297.438 179.982C318.54 179.982 335.646 171.429 335.646 160.878C335.646 150.328 318.54 141.774 297.438 141.774C276.336 141.774 259.23 150.328 259.23 160.878C259.23 171.429 276.336 179.982 297.438 179.982Z" fill="#71AA21"/>
<path d="M295.315 159.605C295.315 159.605 287.249 148.992 276.636 149.841C262.626 151.114 264.324 155.784 268.145 159.605C271.966 163.001 284.277 162.577 295.315 159.605Z" fill="#5E8E11"/>
<path d="M298.712 159.18C298.712 159.18 308.476 150.689 319.089 150.689C330.127 150.689 330.552 155.359 327.156 159.604C322.061 164.274 309.75 162.151 298.712 159.18Z" fill="#5E8E11"/>
<path d="M295.315 160.878C295.315 160.878 280.032 164.699 275.362 166.397C270.692 168.095 274.938 174.463 284.702 174.888C297.013 174.888 295.315 160.878 295.315 160.878Z" fill="#5E8E11"/>
<path d="M298.287 160.878C298.287 160.878 313.995 164.274 318.24 166.397C323.759 168.944 316.118 174.463 306.353 174.888C293.617 174.888 298.287 160.878 298.287 160.878Z" fill="#5E8E11"/>
<path d="M297.438 157.482C297.438 157.482 291.07 151.539 289.372 149.416C288.098 147.293 291.07 144.322 298.712 143.897C308.9 143.897 309.749 146.869 306.353 150.69C302.957 154.51 297.438 157.482 297.438 157.482Z" fill="#5E8E11"/>
<path d="M440.931 203.332H356.024V208.002H440.931V203.332Z" fill="#5E8E11"/>
<path d="M398.477 229.652C421.924 229.652 440.931 219.578 440.931 207.152C440.931 194.725 421.924 184.652 398.477 184.652C375.031 184.652 356.024 194.725 356.024 207.152C356.024 219.578 375.031 229.652 398.477 229.652Z" fill="#5E8E11"/>
<path d="M398.477 225.832C421.924 225.832 440.931 215.758 440.931 203.332C440.931 190.905 421.924 180.831 398.477 180.831C375.031 180.831 356.024 190.905 356.024 203.332C356.024 215.758 375.031 225.832 398.477 225.832Z" fill="#BED134"/>
<path d="M398.477 222.436C419.579 222.436 436.685 213.883 436.685 203.332C436.685 192.781 419.579 184.228 398.477 184.228C377.375 184.228 360.269 192.781 360.269 203.332C360.269 213.883 377.375 222.436 398.477 222.436Z" fill="#71AA21"/>
<path d="M396.779 201.633C396.779 201.633 388.713 191.02 378.099 191.869C364.09 193.143 365.788 197.813 369.609 201.633C373.005 205.454 385.316 205.03 396.779 201.633Z" fill="#5E8E11"/>
<path d="M399.751 201.633C399.751 201.633 409.515 193.142 420.129 193.142C431.166 193.142 431.591 197.812 428.195 202.058C423.525 206.727 411.213 204.605 399.751 201.633Z" fill="#5E8E11"/>
<path d="M396.779 203.332C396.779 203.332 381.496 207.153 376.826 208.851C372.156 210.549 376.401 216.917 386.166 217.341C398.477 217.341 396.779 203.332 396.779 203.332Z" fill="#5E8E11"/>
<path d="M399.326 203.332C399.326 203.332 415.034 206.728 419.28 208.851C424.799 211.398 417.157 216.917 407.393 217.341C395.081 217.341 399.326 203.332 399.326 203.332Z" fill="#5E8E11"/>
<path d="M398.477 199.935C398.477 199.935 392.109 193.992 390.411 191.869C389.137 189.747 392.109 186.775 399.751 186.35C409.94 186.35 410.789 189.322 407.392 193.143C403.996 196.964 398.477 199.935 398.477 199.935Z" fill="#5E8E11"/>
<path d="M215.503 298.851H119.134V303.945H215.503V298.851Z" fill="#ED2B2B"/>
<path d="M167.106 328.568C193.835 328.568 215.503 317.164 215.503 303.096C215.503 289.028 193.835 277.624 167.106 277.624C140.377 277.624 118.709 289.028 118.709 303.096C118.709 317.164 140.377 328.568 167.106 328.568Z" fill="#ED2B2B"/>
<path d="M167.106 324.748C193.835 324.748 215.503 313.344 215.503 299.276C215.503 285.208 193.835 273.804 167.106 273.804C140.377 273.804 118.709 285.208 118.709 299.276C118.709 313.344 140.377 324.748 167.106 324.748Z" fill="#FF6969"/>
<path d="M167.106 320.927C191.022 320.927 210.409 311.233 210.409 299.276C210.409 287.318 191.022 277.624 167.106 277.624C143.191 277.624 123.804 287.318 123.804 299.276C123.804 311.233 143.191 320.927 167.106 320.927Z" fill="#FF4343"/>
<path d="M138.662 310.313C134.417 310.313 122.53 296.304 138.238 286.964C153.945 277.624 175.597 280.596 179.842 281.445C186.21 282.719 179.417 288.662 172.2 289.087C168.804 289.511 161.162 290.36 156.493 292.483C150.974 295.03 148.851 298.426 148.851 300.549C148.851 303.945 142.058 310.313 138.662 310.313Z" fill="#ED2B2B"/>
<path d="M153.096 304.795C148.851 307.342 141.634 313.286 149.276 315.408C165.408 320.078 181.965 317.531 193.427 312.012C205.314 306.493 207.861 297.153 201.069 290.785C195.974 286.116 191.305 285.691 188.333 287.389C181.965 291.634 187.484 298.852 175.172 301.399C167.955 303.097 158.191 301.823 153.096 304.795Z" fill="#ED2B2B"/>
<path d="M171.352 286.965C171.352 286.965 174.748 282.719 170.502 282.719C167.955 282.719 171.352 286.965 171.352 286.965Z" fill="#FF6969"/>
<path d="M166.682 287.389C166.682 287.389 166.682 281.87 162.436 282.719C159.465 282.719 166.682 287.389 166.682 287.389Z" fill="#FF6969"/>
<path d="M160.314 287.814C160.314 287.814 157.342 282.719 154.37 283.568C150.974 284.842 160.314 287.814 160.314 287.814Z" fill="#FF6969"/>
<path d="M153.521 290.361C153.521 290.361 150.125 284.417 145.879 286.115C141.634 287.813 153.521 290.361 153.521 290.361Z" fill="#FF6969"/>
<path d="M148.427 293.757C148.427 293.757 143.332 287.389 138.238 290.785C135.266 292.908 148.427 293.757 148.427 293.757Z" fill="#FF6969"/>
<path d="M145.879 297.577C145.879 297.577 138.238 295.03 135.69 296.728C132.719 298.426 140.36 301.398 145.879 297.577Z" fill="#FF6969"/>
<path d="M145.03 301.398C145.03 301.398 139.511 301.823 136.964 303.521C135.69 304.37 136.964 306.493 139.511 306.068C144.181 305.219 145.03 301.398 145.03 301.398Z" fill="#FF6969"/>
<path d="M188.757 292.059C188.757 292.059 191.304 289.936 194.276 289.936C197.248 289.936 198.946 292.059 195.125 292.483C191.304 292.483 188.757 292.059 188.757 292.059Z" fill="#FF6969"/>
<path d="M156.493 305.644C156.068 305.644 152.672 307.766 151.398 309.889C150.549 311.587 154.37 313.285 155.644 310.314C156.917 306.917 156.493 305.644 156.493 305.644Z" fill="#FF6969"/>
<path d="M162.011 305.644C162.011 305.644 160.313 307.342 160.738 309.889C160.738 312.436 164.559 313.285 164.134 309.889C163.71 306.917 162.011 305.644 162.011 305.644Z" fill="#FF6969"/>
<path d="M168.38 305.219C168.38 305.219 168.38 308.191 169.229 310.313C170.078 312.436 175.173 313.71 173.05 309.889C170.503 305.644 168.38 305.219 168.38 305.219Z" fill="#FF6969"/>
<path d="M175.597 304.37C175.597 304.37 176.87 307.766 179.842 309.889C182.389 312.436 185.361 310.314 182.814 307.766C180.267 305.219 175.597 304.37 175.597 304.37Z" fill="#FF6969"/>
<path d="M181.965 302.247C181.965 302.247 184.512 305.644 187.908 307.342C191.305 309.04 194.276 307.342 190.456 305.219C186.635 302.672 181.965 302.247 181.965 302.247Z" fill="#FF6969"/>
<path d="M187.059 298.427C187.059 298.427 192.578 302.248 195.974 302.672C199.371 303.097 201.493 299.701 197.672 298.852C193.852 298.427 187.059 298.427 187.059 298.427Z" fill="#FF6969"/>
<path d="M189.182 295.455C189.182 295.455 193.852 293.757 196.823 294.181C199.795 294.606 201.918 296.304 198.946 296.729C195.55 296.729 189.182 295.455 189.182 295.455Z" fill="#FF6969"/>
<path d="M353.901 309.889H257.531V314.984H353.901V309.889Z" fill="#ED2B2B"/>
<path d="M305.928 339.607C332.657 339.607 354.325 328.202 354.325 314.135C354.325 300.067 332.657 288.663 305.928 288.663C279.199 288.663 257.531 300.067 257.531 314.135C257.531 328.202 279.199 339.607 305.928 339.607Z" fill="#ED2B2B"/>
<path d="M305.928 335.786C332.657 335.786 354.325 324.382 354.325 310.314C354.325 296.246 332.657 284.842 305.928 284.842C279.199 284.842 257.531 296.246 257.531 310.314C257.531 324.382 279.199 335.786 305.928 335.786Z" fill="#FF6969"/>
<path d="M305.928 331.965C329.843 331.965 349.231 322.271 349.231 310.314C349.231 298.356 329.843 288.663 305.928 288.663C282.013 288.663 262.626 298.356 262.626 310.314C262.626 322.271 282.013 331.965 305.928 331.965Z" fill="#FF4343"/>
<path d="M277.06 321.352C272.815 321.352 260.928 307.342 276.635 298.002C292.343 288.663 313.994 291.634 318.24 292.484C324.608 293.757 317.815 299.701 310.598 300.125C307.202 300.55 299.56 301.399 294.89 303.521C289.371 306.069 287.249 309.465 287.249 311.588C287.249 314.984 280.456 321.352 277.06 321.352Z" fill="#ED2B2B"/>
<path d="M291.494 315.833C287.249 318.381 280.032 324.324 287.674 326.447C303.806 331.117 320.363 328.569 331.825 323.05C343.712 317.531 346.259 308.192 339.467 301.824C334.372 297.154 329.702 296.729 326.731 298.427C320.363 302.673 325.882 309.89 313.57 312.437C306.353 314.135 296.589 312.862 291.494 315.833Z" fill="#ED2B2B"/>
<path d="M309.749 298.003C309.749 298.003 313.145 293.758 308.9 293.758C306.353 293.758 309.749 298.003 309.749 298.003Z" fill="#FF6969"/>
<path d="M305.079 298.427C305.079 298.427 305.079 292.908 300.834 293.758C297.862 293.758 305.079 298.427 305.079 298.427Z" fill="#FF6969"/>
<path d="M298.711 298.852C298.711 298.852 295.74 293.758 292.768 294.607C289.372 295.88 298.711 298.852 298.711 298.852Z" fill="#FF6969"/>
<path d="M291.919 301.399C291.919 301.399 288.523 295.456 284.277 297.154C280.032 298.852 291.919 301.399 291.919 301.399Z" fill="#FF6969"/>
<path d="M287.249 304.795C287.249 304.795 282.154 298.427 277.06 301.823C273.664 303.946 287.249 304.795 287.249 304.795Z" fill="#FF6969"/>
<path d="M284.277 308.616C284.277 308.616 276.636 306.068 274.088 307.767C271.117 309.465 278.758 312.436 284.277 308.616Z" fill="#FF6969"/>
<path d="M283.428 312.437C283.428 312.437 277.909 312.861 275.362 314.559C274.088 315.409 275.362 317.531 277.909 317.107C282.579 316.258 283.428 312.437 283.428 312.437Z" fill="#FF6969"/>
<path d="M327.155 303.097C327.155 303.097 329.702 300.974 332.674 300.974C335.646 300.974 337.344 303.097 333.523 303.522C329.702 303.522 327.155 303.097 327.155 303.097Z" fill="#FF6969"/>
<path d="M294.89 316.682C294.466 316.682 291.07 318.805 289.796 320.927C288.947 322.626 292.768 324.324 294.041 321.352C295.315 317.956 294.89 316.682 294.89 316.682Z" fill="#FF6969"/>
<path d="M300.409 316.682C300.409 316.682 298.711 318.38 299.136 320.927C299.136 323.475 302.957 324.324 302.532 320.927C302.108 317.956 300.409 316.682 300.409 316.682Z" fill="#FF6969"/>
<path d="M306.777 316.257C306.777 316.257 306.777 319.229 307.626 321.352C308.475 323.474 313.57 324.748 311.447 320.927C308.9 316.682 306.777 316.257 306.777 316.257Z" fill="#FF6969"/>
<path d="M313.994 315.408C313.994 315.408 315.268 318.805 318.239 320.927C320.787 323.475 323.758 321.352 321.211 318.805C318.664 316.258 313.994 315.408 313.994 315.408Z" fill="#FF6969"/>
<path d="M320.362 313.286C320.362 313.286 322.909 316.682 326.306 318.38C329.702 320.078 332.674 318.38 328.853 316.258C325.032 313.71 320.362 313.286 320.362 313.286Z" fill="#FF6969"/>
<path d="M325.457 309.465C325.457 309.465 330.976 313.286 334.372 313.711C337.768 314.135 339.891 310.739 336.07 309.89C332.249 309.465 325.457 309.465 325.457 309.465Z" fill="#FF6969"/>
<path d="M327.58 306.493C327.58 306.493 332.249 304.795 335.221 305.22C338.193 305.644 340.316 307.342 337.344 307.767C334.372 307.767 327.58 306.493 327.58 306.493Z" fill="#FF6969"/>
<path d="M133.567 244.087H37.1982V249.181H133.567V244.087Z" fill="#ED2B2B"/>
<path d="M85.5952 273.804C112.324 273.804 133.992 262.4 133.992 248.332C133.992 234.264 112.324 222.86 85.5952 222.86C58.8663 222.86 37.1982 234.264 37.1982 248.332C37.1982 262.4 58.8663 273.804 85.5952 273.804Z" fill="#ED2B2B"/>
<path d="M85.5952 269.983C112.324 269.983 133.992 258.579 133.992 244.511C133.992 230.444 112.324 219.039 85.5952 219.039C58.8663 219.039 37.1982 230.444 37.1982 244.511C37.1982 258.579 58.8663 269.983 85.5952 269.983Z" fill="#FF6969"/>
<path d="M85.595 266.162C109.51 266.162 128.897 256.469 128.897 244.511C128.897 232.553 109.51 222.86 85.595 222.86C61.6797 222.86 42.2925 232.553 42.2925 244.511C42.2925 256.469 61.6797 266.162 85.595 266.162Z" fill="#FF4343"/>
<path d="M56.7269 255.125C52.4816 255.125 40.5946 241.115 56.3024 231.776C72.0101 222.436 93.6614 225.408 97.9067 226.257C104.275 227.53 97.4822 233.474 90.2651 233.898C86.8688 234.323 79.2272 235.172 74.5573 237.295C69.0384 239.842 66.9157 243.238 66.9157 245.361C67.3402 249.182 60.1232 255.125 56.7269 255.125Z" fill="#ED2B2B"/>
<path d="M71.1612 249.606C66.9158 252.153 59.6988 258.096 67.3404 260.219C83.4727 264.889 100.029 262.342 111.492 256.823C123.379 251.304 125.926 241.964 119.134 235.596C114.039 230.926 109.369 230.502 106.398 232.2C100.03 236.445 105.548 243.662 93.2369 246.21C86.4444 248.332 76.2556 247.059 71.1612 249.606Z" fill="#ED2B2B"/>
<path d="M89.4159 231.775C89.4159 231.775 92.8122 227.53 88.5668 227.53C86.0196 227.53 89.4159 231.775 89.4159 231.775Z" fill="#FF6969"/>
<path d="M84.7459 232.625C84.7459 232.625 84.7459 227.106 80.5006 227.955C77.5288 227.955 84.7459 232.625 84.7459 232.625Z" fill="#FF6969"/>
<path d="M78.3781 233.049C78.3781 233.049 75.4063 227.955 72.4346 228.804C69.4629 230.078 78.3781 233.049 78.3781 233.049Z" fill="#FF6969"/>
<path d="M72.01 235.596C72.01 235.596 68.6137 229.653 64.3684 231.351C60.1231 233.049 72.01 235.596 72.01 235.596Z" fill="#FF6969"/>
<path d="M66.9154 238.993C66.9154 238.993 61.821 232.625 56.7266 236.021C53.3303 237.719 66.9154 238.993 66.9154 238.993Z" fill="#FF6969"/>
<path d="M63.944 242.813C63.944 242.813 56.3024 240.266 53.7552 241.964C50.7834 243.662 58.425 246.209 63.944 242.813Z" fill="#FF6969"/>
<path d="M63.5196 246.634C63.5196 246.634 58.0007 247.059 55.4535 248.757C54.1799 249.606 55.4535 251.728 58.0007 251.304C62.2461 250.455 63.5196 246.634 63.5196 246.634Z" fill="#FF6969"/>
<path d="M106.822 236.869C106.822 236.869 109.369 234.747 112.341 234.747C115.313 234.747 117.011 236.869 113.19 237.294C109.369 237.719 106.822 236.869 106.822 236.869Z" fill="#FF6969"/>
<path d="M74.5572 250.879C74.1327 250.879 70.7364 253.002 69.4628 255.125C68.6137 256.823 72.4346 258.521 73.7082 255.549C74.9818 252.153 74.5572 250.879 74.5572 250.879Z" fill="#FF6969"/>
<path d="M80.0761 250.879C80.0761 250.879 78.378 252.578 78.8025 255.125C78.8025 257.672 82.6233 258.521 82.1988 255.125C82.1988 251.728 80.0761 250.879 80.0761 250.879Z" fill="#FF6969"/>
<path d="M86.4442 250.031C86.4442 250.031 86.4442 253.002 87.2933 255.125C88.1423 257.248 93.2367 258.521 91.114 254.7C88.9914 250.88 86.4442 250.031 86.4442 250.031Z" fill="#FF6969"/>
<path d="M93.6616 249.606C93.6616 249.606 94.9352 253.002 97.907 255.125C100.454 257.672 103.426 255.549 100.879 253.002C98.3315 250.455 93.6616 249.606 93.6616 249.606Z" fill="#FF6969"/>
<path d="M100.454 247.059C100.454 247.059 103.001 250.455 106.397 252.153C109.794 253.851 112.765 252.153 108.945 250.031C105.124 247.908 100.454 247.059 100.454 247.059Z" fill="#FF6969"/>
<path d="M105.124 243.662C105.124 243.662 110.643 247.483 114.039 247.907C117.435 248.332 119.558 244.935 115.737 244.086C111.916 243.237 105.124 243.662 105.124 243.662Z" fill="#FF6969"/>
<path d="M107.246 240.691C107.246 240.691 111.916 238.992 114.888 239.417C117.86 239.842 119.982 241.54 117.011 241.964C114.039 241.964 107.246 240.691 107.246 240.691Z" fill="#FF6969"/>
<path d="M239.701 155.783H143.332V160.878H239.701V155.783Z" fill="#ED2B2B"/>
<path d="M191.304 185.5C218.033 185.5 239.701 174.096 239.701 160.028C239.701 145.961 218.033 134.556 191.304 134.556C164.575 134.556 142.907 145.961 142.907 160.028C142.907 174.096 164.575 185.5 191.304 185.5Z" fill="#ED2B2B"/>
<path d="M191.304 181.255C218.033 181.255 239.701 169.851 239.701 155.783C239.701 141.715 218.033 130.311 191.304 130.311C164.575 130.311 142.907 141.715 142.907 155.783C142.907 169.851 164.575 181.255 191.304 181.255Z" fill="#FF6969"/>
<path d="M191.304 177.434C215.219 177.434 234.607 167.74 234.607 155.783C234.607 143.825 215.219 134.132 191.304 134.132C167.389 134.132 148.002 143.825 148.002 155.783C148.002 167.74 167.389 177.434 191.304 177.434Z" fill="#FF4343"/>
<path d="M162.86 166.821C158.615 166.821 146.728 152.811 162.436 143.471C178.143 134.131 199.795 137.103 204.04 137.952C210.408 139.226 203.615 145.169 196.398 145.594C193.002 146.018 185.361 146.867 180.691 148.99C175.172 151.537 173.049 154.934 173.049 157.056C173.049 160.877 166.256 166.821 162.86 166.821Z" fill="#ED2B2B"/>
<path d="M177.295 161.302C173.049 163.85 165.832 169.793 173.474 171.916C189.606 176.586 206.163 174.038 217.625 168.519C229.512 163 232.06 153.661 225.267 147.293C220.173 142.623 215.503 142.198 212.531 143.896C206.163 148.142 211.682 155.359 199.37 157.906C192.153 159.604 182.389 158.755 177.295 161.302Z" fill="#ED2B2B"/>
<path d="M195.549 143.472C195.549 143.472 198.946 139.227 194.7 139.227C192.153 139.227 195.549 143.472 195.549 143.472Z" fill="#FF6969"/>
<path d="M190.88 143.896C190.88 143.896 190.88 138.377 186.634 139.227C183.663 139.651 190.88 143.896 190.88 143.896Z" fill="#FF6969"/>
<path d="M184.511 144.745C184.511 144.745 181.54 139.651 178.568 140.5C175.172 141.773 184.511 144.745 184.511 144.745Z" fill="#FF6969"/>
<path d="M177.719 146.868C177.719 146.868 174.323 140.924 170.077 142.623C165.832 144.745 177.719 146.868 177.719 146.868Z" fill="#FF6969"/>
<path d="M172.625 150.688C172.625 150.688 167.53 144.32 162.436 147.716C159.464 149.415 172.625 150.688 172.625 150.688Z" fill="#FF6969"/>
<path d="M170.077 154.085C170.077 154.085 162.436 151.537 159.889 153.236C156.917 155.358 164.558 157.905 170.077 154.085Z" fill="#FF6969"/>
<path d="M169.228 158.331C169.228 158.331 163.709 158.755 161.162 160.453C159.888 161.303 161.162 163.425 163.709 163.001C168.379 161.727 169.228 158.331 169.228 158.331Z" fill="#FF6969"/>
<path d="M212.531 148.566C212.531 148.566 215.078 146.444 218.05 146.444C221.022 146.444 222.72 148.566 218.899 148.991C215.503 149.415 212.531 148.566 212.531 148.566Z" fill="#FF6969"/>
<path d="M180.266 162.576C179.842 162.576 176.446 164.699 175.172 166.821C174.323 168.519 178.144 170.218 179.417 167.246C181.115 163.85 180.266 162.576 180.266 162.576Z" fill="#FF6969"/>
<path d="M186.21 162.576C186.21 162.576 184.512 164.274 184.936 166.821C184.936 169.368 188.757 170.218 188.332 166.821C187.908 163.425 186.21 162.576 186.21 162.576Z" fill="#FF6969"/>
<path d="M192.578 161.726C192.578 161.726 192.578 164.698 193.427 166.821C194.276 168.943 199.37 170.217 197.247 166.396C194.7 162.575 192.578 161.726 192.578 161.726Z" fill="#FF6969"/>
<path d="M199.795 161.302C199.795 161.302 201.069 164.699 204.04 166.821C206.587 169.368 209.559 167.246 207.012 164.699C204.465 162.151 199.795 161.302 199.795 161.302Z" fill="#FF6969"/>
<path d="M206.163 158.755C206.163 158.755 208.71 162.151 212.106 163.849C215.503 165.547 218.474 163.849 214.654 161.726C210.833 159.604 206.163 158.755 206.163 158.755Z" fill="#FF6969"/>
<path d="M210.833 155.359C210.833 155.359 216.352 159.179 219.748 159.604C223.144 160.028 225.267 156.632 221.446 155.783C218.05 154.934 210.833 155.359 210.833 155.359Z" fill="#FF6969"/>
<path d="M213.38 152.387C213.38 152.387 218.05 150.689 221.021 151.114C223.993 151.538 226.116 153.236 223.144 153.661C219.748 153.661 213.38 152.387 213.38 152.387Z" fill="#FF6969"/>
<path d="M392.533 167.245H296.164V172.34H392.533V167.245Z" fill="#ED2B2B"/>
<path d="M344.561 196.963C371.29 196.963 392.958 185.558 392.958 171.491C392.958 157.423 371.29 146.019 344.561 146.019C317.832 146.019 296.164 157.423 296.164 171.491C296.164 185.558 317.832 196.963 344.561 196.963Z" fill="#ED2B2B"/>
<path d="M344.561 193.142C371.29 193.142 392.958 181.738 392.958 167.67C392.958 153.602 371.29 142.198 344.561 142.198C317.832 142.198 296.164 153.602 296.164 167.67C296.164 181.738 317.832 193.142 344.561 193.142Z" fill="#FF6969"/>
<path d="M344.561 189.321C368.476 189.321 387.863 179.627 387.863 167.67C387.863 155.712 368.476 146.019 344.561 146.019C320.646 146.019 301.258 155.712 301.258 167.67C301.258 179.627 320.646 189.321 344.561 189.321Z" fill="#FF4343"/>
<path d="M315.693 178.708C311.447 178.708 299.56 164.698 315.268 155.359C330.976 146.019 352.627 148.991 356.872 149.84C363.24 151.113 356.448 157.057 349.231 157.481C345.835 157.906 338.193 158.755 333.523 160.878C328.004 163.425 325.881 166.821 325.881 168.944C326.306 172.34 319.089 178.708 315.693 178.708Z" fill="#ED2B2B"/>
<path d="M330.127 173.189C325.882 175.737 318.665 181.68 326.306 183.803C342.438 188.473 358.995 185.925 370.458 180.406C382.345 174.887 384.892 165.548 378.099 159.18C373.005 154.51 368.335 154.085 365.363 155.783C358.995 160.029 364.514 167.246 352.203 169.793C344.986 171.491 335.221 170.218 330.127 173.189Z" fill="#ED2B2B"/>
<path d="M348.382 155.359C348.382 155.359 351.778 151.114 347.533 151.114C344.985 151.114 348.382 155.359 348.382 155.359Z" fill="#FF6969"/>
<path d="M343.712 155.783C343.712 155.783 343.712 150.264 339.466 151.113C336.495 151.113 343.712 155.783 343.712 155.783Z" fill="#FF6969"/>
<path d="M337.344 156.208C337.344 156.208 334.372 151.114 331.4 151.963C328.004 153.236 337.344 156.208 337.344 156.208Z" fill="#FF6969"/>
<path d="M330.976 158.755C330.976 158.755 327.58 152.812 323.335 154.51C318.665 156.208 330.976 158.755 330.976 158.755Z" fill="#FF6969"/>
<path d="M325.881 162.151C325.881 162.151 320.787 155.783 315.692 159.18C312.296 161.302 325.881 162.151 325.881 162.151Z" fill="#FF6969"/>
<path d="M322.91 165.972C322.91 165.972 315.268 163.425 312.721 165.123C309.749 166.821 317.391 169.793 322.91 165.972Z" fill="#FF6969"/>
<path d="M322.061 169.793C322.061 169.793 316.542 170.218 313.994 171.916C312.721 172.765 313.994 174.887 316.542 174.463C321.211 173.614 322.061 169.793 322.061 169.793Z" fill="#FF6969"/>
<path d="M365.788 160.453C365.788 160.453 368.335 158.331 371.307 158.331C374.278 158.331 375.977 160.453 372.156 160.878C368.335 160.878 365.788 160.453 365.788 160.453Z" fill="#FF6969"/>
<path d="M333.523 174.038C333.099 174.038 329.702 176.161 328.429 178.283C327.58 179.982 331.4 181.68 332.674 178.708C333.948 175.312 333.523 174.038 333.523 174.038Z" fill="#FF6969"/>
<path d="M339.042 174.038C339.042 174.038 337.344 175.736 337.768 178.283C337.768 180.831 341.589 181.68 341.165 178.283C341.165 175.312 339.042 174.038 339.042 174.038Z" fill="#FF6969"/>
<path d="M345.41 173.613C345.41 173.613 345.41 176.585 346.259 178.708C347.108 180.83 352.202 182.104 350.08 178.283C347.957 174.038 345.41 173.613 345.41 173.613Z" fill="#FF6969"/>
<path d="M352.627 172.764C352.627 172.764 353.901 176.161 356.873 178.283C359.42 180.831 362.392 178.708 359.844 176.161C357.297 173.613 352.627 172.764 352.627 172.764Z" fill="#FF6969"/>
<path d="M358.995 170.642C358.995 170.642 361.543 174.038 364.939 175.736C368.335 177.434 371.307 175.736 367.486 173.614C363.665 171.066 358.995 170.642 358.995 170.642Z" fill="#FF6969"/>
<path d="M364.09 166.821C364.09 166.821 369.608 170.642 373.005 171.067C376.401 171.491 378.524 168.095 374.703 167.246C370.882 166.821 364.09 166.821 364.09 166.821Z" fill="#FF6969"/>
<path d="M366.212 163.849C366.212 163.849 370.882 162.151 373.854 162.576C376.826 163 378.948 164.698 375.976 165.123C373.005 165.123 366.212 163.849 366.212 163.849Z" fill="#FF6969"/>
<path d="M459.61 258.096H363.241V263.191H459.61V258.096Z" fill="#ED2B2B"/>
<path d="M411.637 287.813C438.366 287.813 460.034 276.409 460.034 262.341C460.034 248.274 438.366 236.869 411.637 236.869C384.909 236.869 363.241 248.274 363.241 262.341C363.241 276.409 384.909 287.813 411.637 287.813Z" fill="#ED2B2B"/>
<path d="M411.637 283.993C438.366 283.993 460.034 272.589 460.034 258.521C460.034 244.454 438.366 233.049 411.637 233.049C384.909 233.049 363.241 244.454 363.241 258.521C363.241 272.589 384.909 283.993 411.637 283.993Z" fill="#FF6969"/>
<path d="M411.637 280.172C435.553 280.172 454.94 270.478 454.94 258.521C454.94 246.563 435.553 236.869 411.637 236.869C387.722 236.869 368.335 246.563 368.335 258.521C368.335 270.478 387.722 280.172 411.637 280.172Z" fill="#FF4343"/>
<path d="M382.769 269.559C378.524 269.559 366.637 255.549 382.345 246.21C398.052 236.87 419.704 239.841 423.949 240.691C430.317 241.964 423.524 247.908 416.307 248.332C412.911 248.757 405.269 249.606 400.6 251.728C395.081 254.276 392.958 257.672 392.958 259.795C393.382 263.191 386.165 269.134 382.769 269.559Z" fill="#ED2B2B"/>
<path d="M397.203 263.615C392.958 266.163 385.741 272.106 393.383 274.229C409.515 278.899 426.072 276.351 437.534 270.832C449.421 265.313 451.968 255.974 445.176 249.606C440.081 244.936 435.411 244.511 432.44 246.209C426.072 250.455 431.591 257.672 419.279 260.219C412.487 262.342 402.298 261.068 397.203 263.615Z" fill="#ED2B2B"/>
<path d="M415.458 245.785C415.458 245.785 418.854 241.54 414.609 241.54C412.062 241.964 415.458 245.785 415.458 245.785Z" fill="#FF6969"/>
<path d="M410.789 246.634C410.789 246.634 410.789 241.115 406.543 241.964C403.572 241.964 410.789 246.634 410.789 246.634Z" fill="#FF6969"/>
<path d="M404.42 247.059C404.42 247.059 401.449 241.965 398.477 242.814C395.505 244.088 404.42 247.059 404.42 247.059Z" fill="#FF6969"/>
<path d="M398.052 249.606C398.052 249.606 394.656 243.662 390.411 245.361C386.165 247.059 398.052 249.606 398.052 249.606Z" fill="#FF6969"/>
<path d="M392.958 253.002C392.958 253.002 387.864 246.634 382.77 250.031C379.373 252.153 392.958 253.002 392.958 253.002Z" fill="#FF6969"/>
<path d="M389.986 256.823C389.986 256.823 382.345 254.276 379.798 255.974C376.826 257.672 384.467 260.219 389.986 256.823Z" fill="#FF6969"/>
<path d="M389.562 260.644C389.562 260.644 384.043 261.068 381.496 262.766C380.222 263.616 381.496 265.738 384.043 265.314C388.288 264.465 389.562 260.644 389.562 260.644Z" fill="#FF6969"/>
<path d="M432.864 250.88C432.864 250.88 435.412 248.757 438.383 248.757C441.355 248.757 443.053 250.88 439.232 251.304C435.411 251.729 432.864 250.88 432.864 250.88Z" fill="#FF6969"/>
<path d="M400.6 264.889C400.175 264.889 396.779 267.012 395.505 269.135C394.656 270.833 398.477 272.531 399.751 269.559C401.024 266.163 400.6 264.889 400.6 264.889Z" fill="#FF6969"/>
<path d="M406.119 264.889C406.119 264.889 404.42 266.588 404.845 269.135C404.845 271.682 408.666 272.531 408.241 269.135C408.241 266.163 406.119 264.889 406.119 264.889Z" fill="#FF6969"/>
<path d="M412.487 264.464C412.487 264.464 412.486 267.436 413.336 269.559C414.185 271.681 419.279 272.955 417.156 269.134C415.034 265.313 412.487 264.464 412.487 264.464Z" fill="#FF6969"/>
<path d="M419.704 263.615C419.704 263.615 420.977 267.012 423.949 269.134C426.496 271.681 429.468 269.559 426.921 267.012C424.374 264.464 419.704 263.615 419.704 263.615Z" fill="#FF6969"/>
<path d="M426.496 261.493C426.496 261.493 429.044 264.889 432.44 266.587C435.836 268.285 438.808 266.587 434.987 264.464C431.166 261.917 426.496 261.493 426.496 261.493Z" fill="#FF6969"/>
<path d="M431.166 257.672C431.166 257.672 436.685 261.493 440.081 261.917C443.478 262.342 445.6 258.946 441.779 258.097C437.959 257.672 431.166 257.672 431.166 257.672Z" fill="#FF6969"/>
<path d="M433.289 254.7C433.289 254.7 437.959 253.002 440.93 253.427C443.902 253.851 446.025 255.549 443.053 255.974C440.081 255.974 433.289 254.7 433.289 254.7Z" fill="#FF6969"/>
<path d="M290.645 253.851H194.276V258.945H290.645V253.851Z" fill="#ED2B2B"/>
<path d="M242.248 283.568C268.977 283.568 290.645 272.164 290.645 258.096C290.645 244.028 268.977 232.624 242.248 232.624C215.519 232.624 193.851 244.028 193.851 258.096C193.851 272.164 215.519 283.568 242.248 283.568Z" fill="#ED2B2B"/>
<path d="M242.248 279.748C268.977 279.748 290.645 268.344 290.645 254.276C290.645 240.208 268.977 228.804 242.248 228.804C215.519 228.804 193.851 240.208 193.851 254.276C193.851 268.344 215.519 279.748 242.248 279.748Z" fill="#FF6969"/>
<path d="M242.248 275.927C266.163 275.927 285.551 266.233 285.551 254.275C285.551 242.318 266.163 232.624 242.248 232.624C218.333 232.624 198.946 242.318 198.946 254.275C198.946 266.233 218.333 275.927 242.248 275.927Z" fill="#FF4343"/>
<path d="M213.38 265.314C209.135 265.314 197.248 251.304 212.955 241.964C228.663 232.624 250.314 235.596 254.56 236.445C260.928 237.719 254.135 243.662 246.918 244.087C243.522 244.511 235.88 245.36 231.21 247.483C225.691 250.03 223.569 253.427 223.569 255.549C223.993 258.946 217.201 265.314 213.38 265.314Z" fill="#ED2B2B"/>
<path d="M228.239 259.37C223.993 261.917 216.776 267.861 224.418 269.983C240.55 274.653 257.107 272.106 268.57 266.587C280.457 261.068 283.004 251.728 276.211 245.36C271.117 240.69 266.447 240.266 263.475 241.964C257.107 246.209 262.626 253.426 250.315 255.974C243.097 258.096 233.333 256.823 228.239 259.37Z" fill="#ED2B2B"/>
<path d="M246.069 241.965C246.069 241.965 249.465 237.719 245.22 237.719C242.673 237.719 246.069 241.965 246.069 241.965Z" fill="#FF6969"/>
<path d="M241.824 242.389C241.824 242.389 241.824 236.87 237.579 237.719C234.607 237.719 241.824 242.389 241.824 242.389Z" fill="#FF6969"/>
<path d="M235.031 242.814C235.031 242.814 232.059 237.72 229.088 238.569C226.116 239.842 235.031 242.814 235.031 242.814Z" fill="#FF6969"/>
<path d="M228.663 245.361C228.663 245.361 225.267 239.417 221.022 241.115C216.776 242.813 228.663 245.361 228.663 245.361Z" fill="#FF6969"/>
<path d="M223.569 248.757C223.569 248.757 218.474 242.389 213.38 245.785C210.408 247.908 223.569 248.757 223.569 248.757Z" fill="#FF6969"/>
<path d="M220.597 252.578C220.597 252.578 212.955 250.03 210.408 251.729C207.861 253.427 215.078 255.974 220.597 252.578Z" fill="#FF6969"/>
<path d="M220.173 256.398C220.173 256.398 214.654 256.823 212.106 258.521C210.833 259.37 212.106 261.493 214.654 261.068C218.899 260.219 220.173 256.398 220.173 256.398Z" fill="#FF6969"/>
<path d="M263.475 246.634C263.475 246.634 266.022 244.511 268.994 244.511C271.966 244.511 273.664 246.634 269.843 247.059C266.447 247.483 263.475 246.634 263.475 246.634Z" fill="#FF6969"/>
<path d="M231.211 260.644C230.786 260.644 227.39 262.766 226.116 264.889C225.267 266.587 229.088 268.285 230.361 265.314C232.06 261.917 231.211 260.644 231.211 260.644Z" fill="#FF6969"/>
<path d="M237.154 260.644C237.154 260.644 235.456 262.342 235.88 264.889C235.88 267.436 239.701 268.285 239.276 264.889C238.852 261.917 237.154 260.644 237.154 260.644Z" fill="#FF6969"/>
<path d="M243.097 260.219C243.097 260.219 243.097 263.191 243.946 265.313C244.795 267.436 249.89 268.71 247.767 264.889C245.645 260.644 243.097 260.219 243.097 260.219Z" fill="#FF6969"/>
<path d="M250.739 259.37C250.739 259.37 252.013 262.766 254.984 264.889C257.532 267.436 260.503 265.314 257.956 262.766C255.409 260.219 250.739 259.37 250.739 259.37Z" fill="#FF6969"/>
<path d="M257.107 257.247C257.107 257.247 259.654 260.644 263.051 262.342C266.447 264.04 269.419 262.342 265.598 260.219C261.777 257.672 257.107 257.247 257.107 257.247Z" fill="#FF6969"/>
<path d="M261.777 253.427C261.777 253.427 267.296 257.248 270.692 257.672C274.088 258.097 276.211 254.701 272.39 253.852C268.569 253.427 261.777 253.427 261.777 253.427Z" fill="#FF6969"/>
<path d="M263.9 250.455C263.9 250.455 268.569 248.757 271.541 249.181C274.513 249.606 276.636 251.304 273.664 251.729C270.692 252.153 263.9 250.455 263.9 250.455Z" fill="#FF6969"/>
<path d="M390.835 291.635H305.929V296.305H390.835V291.635Z" fill="#5E8E11"/>
<path d="M348.382 317.955C371.828 317.955 390.835 307.882 390.835 295.455C390.835 283.029 371.828 272.955 348.382 272.955C324.936 272.955 305.929 283.029 305.929 295.455C305.929 307.882 324.936 317.955 348.382 317.955Z" fill="#5E8E11"/>
<path d="M348.382 314.135C371.828 314.135 390.835 304.061 390.835 291.635C390.835 279.208 371.828 269.134 348.382 269.134C324.936 269.134 305.929 279.208 305.929 291.635C305.929 304.061 324.936 314.135 348.382 314.135Z" fill="#BED134"/>
<path d="M348.382 310.739C369.484 310.739 386.59 302.186 386.59 291.635C386.59 281.084 369.484 272.531 348.382 272.531C327.28 272.531 310.174 281.084 310.174 291.635C310.174 302.186 327.28 310.739 348.382 310.739Z" fill="#71AA21"/>
<path d="M346.684 290.362C346.684 290.362 338.618 279.748 328.004 280.597C313.995 281.871 315.693 286.541 319.513 290.362C322.91 293.758 335.221 293.333 346.684 290.362Z" fill="#5E8E11"/>
<path d="M349.656 289.936C349.656 289.936 359.42 281.446 370.033 281.446C381.071 281.446 381.496 286.116 378.1 290.361C373.43 295.031 361.118 292.908 349.656 289.936Z" fill="#5E8E11"/>
<path d="M346.684 291.635C346.684 291.635 331.401 295.456 326.731 297.154C322.061 298.852 326.306 305.22 336.07 305.645C348.382 305.645 346.684 291.635 346.684 291.635Z" fill="#5E8E11"/>
<path d="M349.656 291.635C349.656 291.635 365.364 295.031 369.609 297.154C375.128 299.701 367.486 305.22 357.722 305.645C344.986 305.645 349.656 291.635 349.656 291.635Z" fill="#5E8E11"/>
<path d="M348.382 288.239C348.382 288.239 342.014 282.295 340.316 280.173C339.042 278.05 342.014 275.078 349.656 274.654C359.844 274.654 360.694 277.626 357.297 281.446C353.901 285.267 348.382 288.239 348.382 288.239Z" fill="#5E8E11"/>
<path d="M162.436 199.935C162.436 199.935 159.464 215.218 160.313 220.313C162.436 234.322 178.568 231.351 178.568 231.351C178.568 231.351 168.804 209.699 162.436 199.935Z" fill="#71AA21"/>
<path d="M122.105 207.576C122.105 207.152 122.105 206.727 122.105 206.303C121.681 198.661 115.313 191.444 106.397 188.897C95.3596 185.925 85.1708 191.02 82.199 200.784C81.7745 201.633 81.3499 206.303 81.7745 207.152C81.7745 207.152 83.0481 210.124 84.3217 211.397C89.8406 216.916 102.152 219.039 111.916 216.492C118.284 214.794 121.681 211.397 122.105 207.576Z" fill="#344144"/>
<path opacity="0.5" d="M105.516 201.861C110.044 203.081 114.308 201.869 115.04 199.152C115.772 196.436 112.696 193.244 108.168 192.023C103.641 190.803 99.3768 192.015 98.6444 194.732C97.912 197.448 100.989 200.64 105.516 201.861Z" fill="white"/>
<path d="M365.364 219.464C365.364 219.039 365.364 218.615 365.364 218.19C364.939 210.548 358.571 203.331 349.656 200.784C338.618 197.812 328.429 202.907 325.457 212.671C325.033 213.52 324.608 218.19 325.033 219.039C325.033 219.039 326.306 222.011 327.58 223.284C333.099 228.803 345.41 230.926 355.175 228.379C361.543 226.681 364.939 223.284 365.364 219.464Z" fill="#344144"/>
<path opacity="0.5" d="M348.751 213.732C353.279 214.953 357.543 213.74 358.275 211.024C359.008 208.307 355.931 205.116 351.404 203.895C346.876 202.674 342.612 203.887 341.88 206.603C341.147 209.32 344.224 212.512 348.751 213.732Z" fill="white"/>
<path d="M456.638 270.833C456.638 270.408 456.638 269.984 456.638 269.559C456.214 261.918 449.846 254.7 440.93 252.153C429.893 249.182 419.704 254.276 416.732 264.04C416.308 264.889 415.883 269.559 416.308 270.408C416.308 270.408 417.581 273.38 418.855 274.654C424.374 280.173 436.685 282.295 446.45 279.748C452.818 278.05 456.214 274.654 456.638 270.833Z" fill="#344144"/>
<path opacity="0.5" d="M440.029 265.106C444.556 266.326 448.82 265.114 449.553 262.397C450.285 259.681 447.208 256.489 442.681 255.268C438.153 254.048 433.89 255.26 433.157 257.977C432.425 260.693 435.501 263.885 440.029 265.106Z" fill="white"/>
<path d="M408.241 229.228C408.241 228.804 408.241 228.379 408.241 227.955C408.666 220.313 415.034 213.096 423.949 210.549C434.987 207.577 445.176 212.671 448.147 222.436C448.572 223.285 448.996 227.955 448.572 228.804C448.572 228.804 447.298 231.775 446.025 233.049C440.506 238.568 428.194 240.691 418.43 238.144C412.062 236.021 408.241 232.625 408.241 229.228Z" fill="#344144"/>
<path opacity="0.5" d="M422.017 213.515C417.49 214.736 414.413 217.927 415.145 220.644C415.878 223.36 420.142 224.573 424.669 223.352C429.197 222.132 432.273 218.94 431.541 216.223C430.808 213.507 426.545 212.294 422.017 213.515Z" fill="white"/>
<path d="M97.9069 297.577C97.9069 297.577 97.9069 297.153 97.9069 297.577C97.9069 297.153 97.9069 296.728 97.9069 296.304C98.3314 288.662 104.699 281.445 113.615 278.898C124.652 275.926 134.841 281.021 137.813 290.785C138.238 291.634 138.662 296.304 138.238 297.153C138.238 297.153 136.964 300.125 135.69 301.398C130.171 306.917 117.86 309.04 108.096 306.493C101.728 304.37 98.3314 300.974 97.9069 297.577Z" fill="#344144"/>
<path opacity="0.5" d="M111.545 281.689C107.017 282.91 103.941 286.102 104.673 288.818C105.406 291.535 109.67 292.747 114.197 291.527C118.725 290.306 121.801 287.114 121.069 284.398C120.336 281.681 116.072 280.469 111.545 281.689Z" fill="white"/>
<path d="M282.155 168.095C282.155 167.67 282.155 167.246 282.155 166.821C282.579 159.18 288.947 151.962 297.863 149.415C308.9 146.444 319.089 151.538 322.061 161.302C322.485 162.151 322.91 166.821 322.486 167.67C322.486 167.67 321.212 170.642 319.938 171.916C314.419 177.434 302.108 179.557 292.344 177.01C286.4 174.887 282.579 171.491 282.155 168.095Z" fill="#344144"/>
<path opacity="0.5" d="M296.01 152.401C291.483 153.622 288.406 156.814 289.139 159.53C289.871 162.247 294.135 163.459 298.663 162.239C303.19 161.018 306.267 157.826 305.534 155.11C304.802 152.393 300.538 151.181 296.01 152.401Z" fill="white"/>
<path d="M222.296 294.182C222.296 293.758 222.296 293.333 222.296 292.909C222.72 285.267 229.088 278.05 238.003 275.503C249.041 272.531 259.23 277.625 262.202 287.39C262.626 288.239 263.051 292.909 262.626 293.758C262.626 293.758 261.353 296.729 260.079 298.003C254.56 303.522 242.249 305.645 232.484 303.097C226.116 301.399 222.72 298.003 222.296 294.182Z" fill="#344144"/>
<path opacity="0.5" d="M236.002 279.04C231.475 280.261 228.398 283.452 229.131 286.169C229.863 288.885 234.127 290.098 238.655 288.877C243.182 287.657 246.259 284.465 245.526 281.749C244.794 279.032 240.53 277.819 236.002 279.04Z" fill="white"/>
<path d="M168.379 222.86C168.379 222.86 168.379 222.436 168.379 222.86C168.379 222.436 168.379 222.011 168.379 221.587C168.804 213.945 175.172 206.728 184.087 204.181C195.125 201.209 205.314 206.304 208.286 216.068C208.71 216.917 209.135 221.587 208.71 222.436C208.71 222.436 207.437 225.408 206.163 226.681C200.644 232.2 188.332 234.323 178.568 231.776C172.2 229.653 168.379 226.257 168.379 222.86Z" fill="#344144"/>
<path opacity="0.5" d="M182.239 206.899C177.711 208.12 174.635 211.312 175.367 214.028C176.1 216.745 180.363 217.957 184.891 216.737C189.418 215.516 192.495 212.324 191.763 209.608C191.03 206.891 186.766 205.679 182.239 206.899Z" fill="white"/>
<path d="M343.288 255.974C343.288 255.974 330.976 244.087 322.486 249.606C314.419 255.125 311.448 262.342 311.448 262.342C311.448 262.342 334.797 263.615 343.288 255.974Z" fill="#71AA21"/>
<path d="M150.974 219.463C148.426 213.944 144.606 209.275 138.662 207.152C128.898 203.756 118.709 211.397 114.888 220.737C112.765 225.407 111.492 230.077 115.737 233.473C118.284 235.596 120.832 235.596 123.803 235.596C128.473 235.596 132.294 237.294 136.964 238.567C142.058 240.266 148.426 240.266 151.823 235.596C155.643 231.35 153.096 224.133 150.974 219.463Z" fill="#FFE3A6"/>
<path d="M172.201 162.576C167.106 159.604 156.493 162.576 151.823 166.821C149.276 168.944 148.002 173.189 150.125 176.585C152.247 179.982 157.766 182.104 161.587 183.378C165.833 184.651 170.078 184.227 173.474 181.68C180.267 177.01 178.993 166.821 172.201 162.576Z" fill="#FFE3A6"/>
<path d="M249.465 163.85C243.946 162.152 238.427 163.001 232.909 164.699C226.116 167.246 221.022 174.039 213.38 174.888H212.955C209.984 174.463 207.012 174.888 204.465 177.01C203.616 177.86 203.191 179.558 203.616 180.831C206.163 188.897 220.597 196.115 228.239 195.69C234.607 195.265 241.399 191.869 247.343 189.747C252.013 188.473 256.682 185.926 258.805 181.68C263.475 173.614 257.531 165.973 249.465 163.85Z" fill="#FFE3A6"/>
<path d="M319.089 178.708C311.023 171.067 292.768 177.859 283.428 181.68C278.334 183.378 273.664 186.775 278.334 192.294C281.73 196.114 289.796 197.813 294.466 199.935C299.136 202.058 303.806 204.605 308.051 200.784C310.174 198.662 311.872 196.539 314.844 194.416C316.542 193.143 318.665 191.869 319.938 189.746C322.061 186.35 322.061 181.68 319.089 178.708Z" fill="#FFE3A6"/>
<path d="M272.815 201.208C268.145 197.812 264.749 195.265 261.353 195.265C257.107 195.265 252.862 197.812 251.588 201.633C248.616 212.246 263.475 217.341 271.117 213.095C274.938 210.973 277.06 204.18 272.815 201.208Z" fill="#FFE3A6"/>
<path d="M211.682 273.38C205.314 266.587 197.248 272.955 190.455 275.502C189.182 274.229 187.484 272.955 185.785 272.531C179.417 269.983 173.049 270.832 167.106 267.436C162.861 264.889 159.889 261.493 154.794 261.493C150.549 261.493 140.36 270.832 140.36 274.229C140.36 277.2 142.483 278.899 144.606 280.172C147.577 281.87 148.851 280.597 151.398 283.993C152.672 285.691 153.096 287.814 153.945 289.936C156.493 296.729 160.738 303.097 168.804 302.672C173.898 302.248 178.993 298.852 183.663 296.304C185.785 295.031 187.908 293.757 190.031 292.484C195.125 293.757 201.493 293.333 204.465 292.484C212.107 289.936 218.05 280.172 211.682 273.38Z" fill="#FFE3A6"/>
<path d="M187.059 242.389C182.389 236.445 169.229 235.172 164.983 241.964C160.314 250.03 168.38 254.7 171.351 256.398C175.172 258.521 179.842 260.219 184.087 258.521C190.455 255.974 190.88 247.059 187.059 242.389Z" fill="#FFE3A6"/>
<path d="M361.118 246.634C353.052 245.361 343.712 246.21 338.618 253.427C331.825 263.191 338.618 274.654 349.656 276.352C358.571 278.05 377.675 273.805 378.949 262.767C380.647 252.153 370.458 247.908 361.118 246.634Z" fill="#FFE3A6"/>
<path d="M390.835 203.756C386.59 203.332 372.155 212.671 370.882 215.643C368.759 219.464 368.759 224.558 371.731 228.379C378.524 235.596 393.382 232.625 399.326 225.832C405.694 217.341 401.448 204.605 390.835 203.756Z" fill="#FFE3A6"/>
<path d="M388.288 190.171C387.014 187.199 384.043 185.077 381.071 184.228C378.524 183.379 365.363 186.775 364.939 190.596C363.665 198.237 371.731 202.483 378.099 202.483C384.892 202.907 391.26 197.388 388.288 190.171Z" fill="#FFE3A6"/>
<path d="M308.901 220.313C302.533 227.105 312.297 234.747 318.24 235.596C324.608 236.87 335.222 233.473 335.222 224.983C335.222 217.341 312.297 216.917 308.901 220.313Z" fill="#FFE3A6"/>
<path d="M343.288 284.842C341.59 276.776 333.524 277.2 327.58 275.502C317.816 272.955 312.297 263.191 301.683 264.04C293.193 264.464 281.306 270.408 274.513 275.502C270.268 278.898 266.872 283.568 269.843 289.087C273.24 295.455 296.164 300.974 300.834 300.974C310.599 301.399 327.156 301.399 336.071 296.729C340.741 294.606 344.137 289.936 343.288 284.842Z" fill="#FFE3A6"/>
<path d="M242.249 226.256C239.702 219.464 232.484 215.643 225.692 216.068C222.296 216.068 218.475 217.341 215.928 219.464C211.682 222.86 210.833 227.106 204.89 227.53C201.493 227.53 198.522 226.256 195.55 228.804C193.427 230.502 192.578 233.049 192.578 236.021C193.003 240.266 204.041 250.03 208.286 250.455C216.352 251.729 229.513 252.578 236.73 247.059C242.249 242.389 244.796 233.474 242.249 226.256Z" fill="#FFE3A6"/>
<path d="M72.0103 227.954C71.5858 229.652 72.4349 230.926 73.7085 231.775C76.6802 233.898 80.9256 235.171 84.3219 233.473C87.2936 232.2 88.9917 229.228 88.5672 225.832C87.7181 217.765 74.5575 218.19 72.0103 227.954Z" fill="#FFE3A6"/>
<path d="M110.643 244.086C109.794 241.539 107.671 240.266 105.549 238.992C103.426 237.718 93.2371 235.171 93.2371 241.964C93.2371 246.209 97.907 250.879 102.152 251.728C106.822 253.426 112.341 249.181 110.643 244.086Z" fill="#FFE3A6"/>
<path d="M205.738 159.605C202.342 157.482 193.852 158.331 190.88 167.671C190.455 169.369 191.304 171.067 193.002 171.492C198.946 173.19 205.314 169.369 207.437 163.425C207.437 161.727 207.012 160.029 205.738 159.605Z" fill="#FFE3A6"/>
<path d="M169.653 193.567C167.106 192.718 157.342 195.265 155.219 197.388C153.521 199.086 152.247 203.756 153.945 205.029C158.615 208.001 164.559 208.425 169.229 205.454C171.351 204.18 173.474 202.057 173.898 199.51C174.323 196.963 172.2 194.416 169.653 193.567Z" fill="#FFE3A6"/>
<path d="M206.163 299.276C202.767 297.154 198.946 298.852 195.975 300.974C194.701 301.823 190.456 306.918 190.456 309.89C190.456 310.739 190.88 312.012 192.154 312.437C197.248 314.559 208.286 314.135 209.984 307.342C210.833 304.371 209.135 300.974 206.163 299.276Z" fill="#FFE3A6"/>
<path d="M411.637 249.181C410.364 244.511 389.986 248.332 389.137 253.002C388.288 258.945 397.628 260.219 401.873 260.219C407.392 259.37 413.335 255.125 411.637 249.181Z" fill="#FFE3A6"/>
<path opacity="0.5" d="M134.841 213.944C131.869 209.274 121.681 216.492 121.681 221.161C121.681 224.558 124.228 226.256 127.624 226.68C131.445 227.529 135.69 228.379 138.662 224.982C140.785 221.161 136.964 216.916 134.841 213.944Z" fill="white"/>
<path opacity="0.5" d="M249.89 169.793C245.22 167.246 237.154 167.67 232.909 171.067C232.484 171.067 232.484 171.067 232.06 171.067C230.362 171.491 229.088 172.765 227.814 173.189C226.116 174.038 223.994 174.038 222.72 174.887C221.446 175.736 220.597 177.01 221.022 178.284C222.295 183.803 229.088 180.831 231.635 178.708C235.456 175.312 239.701 172.34 245.22 173.614C247.343 174.038 249.041 174.463 250.739 172.765C251.588 172.34 251.164 170.218 249.89 169.793Z" fill="white"/>
<path opacity="0.5" d="M171.351 167.671C168.804 164.274 162.86 163.001 160.313 167.246C160.313 167.671 160.313 167.671 159.889 168.095C159.04 168.52 158.191 168.52 157.766 169.369C156.492 170.218 156.068 171.916 157.341 172.765C160.313 175.312 164.983 180.831 169.653 178.708C173.474 176.586 173.898 171.067 171.351 167.671Z" fill="white"/>
<path opacity="0.5" d="M224.842 220.312C223.569 220.312 222.295 221.161 221.446 221.586C219.748 221.586 218.05 222.01 216.776 223.284C214.653 224.982 212.955 228.378 214.653 230.926C215.503 232.624 217.201 232.624 218.474 233.473C219.323 233.897 220.172 235.171 221.446 235.595C224.418 237.294 228.239 236.444 230.361 233.897C234.607 229.652 232.059 219.463 224.842 220.312Z" fill="white"/>
<path opacity="0.5" d="M212.531 238.144C211.682 234.747 207.861 233.474 204.889 233.049C203.616 232.625 202.342 233.474 201.918 234.323C200.644 234.747 199.795 236.87 200.219 238.144C201.069 240.691 204.465 242.813 207.012 243.663C210.408 244.087 213.38 241.54 212.531 238.144Z" fill="white"/>
<path opacity="0.5" d="M167.53 273.804C166.681 273.379 165.408 272.954 164.134 273.379C160.738 270.832 153.945 267.436 152.671 272.53C152.247 274.653 153.945 276.351 155.643 277.2C156.068 277.2 158.19 277.624 158.19 277.624C158.615 278.049 158.615 280.172 159.464 281.021C162.011 285.266 169.228 285.69 169.653 280.172C170.077 277.2 169.653 275.077 167.53 273.804Z" fill="white"/>
<path opacity="0.5" d="M182.814 275.926C182.389 275.926 181.965 275.926 181.54 276.351C178.144 275.926 175.597 282.294 174.748 284.417C173.898 286.54 172.625 289.087 174.323 291.209C175.597 293.332 178.144 294.181 180.691 293.757C184.512 292.908 188.757 288.662 189.606 284.417C190.455 280.172 187.484 275.926 182.814 275.926Z" fill="white"/>
<path opacity="0.5" d="M203.191 274.653C201.493 274.653 200.219 275.502 198.946 276.351C198.097 276.775 196.823 277.624 196.399 278.473C195.125 279.747 195.549 281.445 196.823 282.719C200.219 285.266 206.163 283.568 207.012 279.322C207.861 276.775 205.738 274.653 203.191 274.653Z" fill="white"/>
<path opacity="0.5" d="M260.928 199.511C258.381 199.935 257.107 203.331 257.107 205.879C257.107 208.426 259.654 210.548 262.201 210.124C264.324 210.124 267.296 209.275 268.145 206.728C268.57 204.18 264.749 199.086 260.928 199.511Z" fill="white"/>
<path opacity="0.5" d="M309.325 179.558C308.051 179.133 306.778 178.709 305.504 179.133C304.23 179.133 302.957 179.133 301.683 179.558C299.136 180.407 298.287 182.529 295.315 182.954C291.919 183.803 285.551 183.803 287.249 189.322C288.523 193.992 296.164 193.567 299.561 193.567C302.108 193.567 304.655 193.567 306.353 191.869C307.202 191.02 307.627 190.171 308.051 188.897C308.051 188.048 308.051 187.624 308.051 186.775C308.051 186.775 308.051 186.775 308.051 186.35C308.476 186.35 308.9 185.926 309.325 185.926C311.447 184.652 311.447 180.407 309.325 179.558Z" fill="white"/>
<path opacity="0.5" d="M319.089 221.161C317.391 220.737 315.268 220.737 313.995 222.86C311.448 226.68 317.391 229.652 320.363 230.501C324.184 231.775 328.853 229.652 328.429 224.982C328.004 220.312 322.485 220.312 319.089 221.161Z" fill="white"/>
<path opacity="0.5" d="M389.137 210.125C387.014 210.974 384.892 211.823 382.769 213.096C382.345 213.521 381.92 213.945 381.495 214.37C381.071 214.37 381.071 214.794 380.646 214.794C378.524 216.493 375.977 219.889 378.524 222.012C380.646 224.134 384.467 222.861 386.59 221.587C387.864 220.738 389.562 219.464 390.411 218.191C391.26 216.917 391.684 215.219 392.109 213.945C393.382 211.823 391.26 209.276 389.137 210.125Z" fill="white"/>
<path opacity="0.5" d="M316.542 277.625C312.296 275.077 308.051 272.106 302.957 271.681C296.589 269.134 286.4 274.228 285.551 281.021C285.551 282.719 287.249 284.842 288.947 284.417C297.013 283.568 302.532 288.238 310.174 289.512C313.995 289.936 321.636 291.634 323.334 286.964C326.306 282.294 319.938 279.323 316.542 277.625Z" fill="white"/>
<path opacity="0.5" d="M366.213 254.7C364.939 252.153 362.392 252.153 360.269 252.153C358.571 252.153 356.873 252.153 355.175 252.578C354.326 252.578 353.477 252.578 352.627 252.578C350.505 253.002 347.958 253.427 347.109 255.549C344.986 261.493 354.326 262.342 357.722 261.917C361.543 261.493 368.76 260.219 366.213 254.7Z" fill="white"/>
<path opacity="0.5" d="M399.751 249.605C398.477 249.181 397.204 250.03 396.779 251.303V251.728C396.355 252.577 396.779 253.426 397.628 253.85L398.053 254.275C398.902 254.699 400.175 254.699 401.024 253.85C401.449 253.001 403.147 251.303 399.751 249.605Z" fill="white"/>
<path d="M103.426 260.219C103.426 260.219 91.9636 263.615 85.5956 274.229C79.2275 284.842 80.9257 292.059 80.9257 292.059C80.9257 292.059 99.6052 287.389 102.152 277.625C104.275 267.861 103.426 260.219 103.426 260.219Z" fill="#71AA21"/>
<path d="M56.7273 249.181C56.7273 249.181 59.2745 264.039 74.1332 260.218C88.9918 256.398 100.03 253.85 100.03 253.85C100.03 253.85 89.4164 248.332 78.8031 248.332C68.1897 248.332 56.7273 249.181 56.7273 249.181Z" fill="#71AA21"/>
<path d="M261.777 253.426C261.777 253.426 272.39 260.643 280.032 263.615C287.673 266.587 307.202 257.247 307.202 257.247C307.202 257.247 297.438 250.03 284.277 249.605C271.541 249.181 261.777 253.426 261.777 253.426Z" fill="#71AA21"/>
<path d="M228.239 259.37C228.239 259.37 236.729 249.181 244.371 248.757C252.437 247.908 263.475 246.634 263.475 246.634C263.475 246.634 263.899 258.096 250.739 259.37C237.154 260.644 228.239 259.37 228.239 259.37Z" fill="#71AA21"/>
<path d="M284.278 308.615C284.278 308.615 282.579 321.351 294.891 324.748C307.627 328.569 316.967 323.899 316.967 323.899C316.967 323.899 316.118 315.408 305.929 312.436C295.74 309.465 284.278 308.615 284.278 308.615Z" fill="#71AA21"/>
<path d="M243.098 130.736C243.098 130.736 235.456 136.255 227.39 142.623C219.324 148.991 214.654 161.727 214.654 161.727C214.654 161.727 240.126 160.878 244.371 148.566C248.617 136.255 243.098 130.736 243.098 130.736Z" fill="#71AA21"/>
<path d="M137.813 150.689C137.813 150.689 142.908 158.331 154.37 155.359C165.832 152.387 180.267 149.416 180.267 149.416C180.267 149.416 173.474 141.35 162.012 143.897C150.974 146.019 137.813 150.689 137.813 150.689Z" fill="#71AA21"/>
<path d="M115.313 158.756C115.313 158.756 110.218 163.85 115.313 174.464C120.407 185.077 126.775 185.926 126.775 185.926C126.775 185.926 134.841 174.464 130.171 168.096C125.501 161.728 115.313 158.756 115.313 158.756Z" fill="#71AA21"/>
<path d="M370.458 155.783C368.76 156.208 352.628 162.576 348.807 169.368C345.41 176.161 341.165 184.652 341.165 184.652C341.165 184.652 358.996 178.708 363.241 172.765C367.911 166.821 370.458 155.783 370.458 155.783Z" fill="#71AA21"/>
<path d="M331.401 152.388C331.401 152.388 323.335 159.605 325.882 168.945C328.429 178.284 331.825 184.652 331.825 184.652C331.825 184.652 339.891 170.218 339.891 165.548C339.891 160.878 331.401 152.388 331.401 152.388Z" fill="#71AA21"/>
<path d="M399.751 269.558C399.751 269.558 398.053 283.993 404.421 291.634C410.364 298.851 419.704 302.672 419.704 302.672C419.704 302.672 424.798 291.634 416.732 280.596C408.241 269.558 399.751 269.558 399.751 269.558Z" fill="#71AA21"/>
<path d="M360.693 232.624C360.693 232.624 371.731 245.36 379.373 247.058C387.015 248.756 398.902 242.813 398.902 242.813C398.902 242.813 390.835 238.992 383.194 237.718C375.552 236.445 360.693 232.624 360.693 232.624Z" fill="#71AA21"/>
<path d="M257.532 201.209C257.532 201.209 253.711 208.426 247.768 214.794C241.824 221.162 235.031 224.983 235.031 224.983C235.031 224.983 252.862 230.078 257.532 219.889C262.202 210.124 257.532 201.209 257.532 201.209Z" fill="#71AA21"/>
<path d="M127.2 250.879C126.351 247.907 123.379 247.058 120.832 248.332C119.134 249.181 115.313 257.671 123.804 257.247C126.775 256.822 128.049 253.426 127.2 250.879Z" fill="#FFE3A6"/>
<path d="M187.059 156.208C184.936 154.085 181.115 154.51 179.842 157.482C179.417 158.331 179.417 158.755 179.417 159.604C178.568 160.878 178.568 162.576 179.842 163.85C181.54 165.972 184.936 165.123 186.634 163.425C188.757 161.302 188.757 157.906 187.059 156.208Z" fill="#FFE3A6"/>
<path d="M342.014 189.746C341.165 188.048 339.467 186.774 337.769 186.35C335.646 185.925 333.948 187.199 333.523 188.472C332.674 188.897 332.25 190.17 332.674 191.02C333.099 194.416 336.919 195.689 339.891 194.84C342.438 194.416 343.288 191.869 342.014 189.746Z" fill="#FFE3A6"/>
<path d="M270.267 161.727C269.418 160.029 267.72 158.756 266.022 158.331C263.899 157.907 262.201 159.18 261.777 160.454C260.928 160.878 260.503 162.152 260.928 163.001C261.352 166.397 265.173 167.671 268.145 166.822C270.267 165.973 271.117 163.425 270.267 161.727Z" fill="#FFE3A6"/>
<path d="M324.183 199.086C322.91 198.662 322.061 199.086 321.212 199.935C319.514 200.784 318.24 201.633 316.966 203.332C315.693 205.03 317.391 207.152 319.089 207.152C321.636 207.152 323.759 206.303 325.457 204.181C327.58 202.482 326.731 199.935 324.183 199.086Z" fill="#FFE3A6"/>
<path d="M234.607 317.956C233.333 317.531 232.484 317.956 231.635 318.805C229.937 319.654 228.663 320.503 227.39 322.201C226.116 323.899 227.814 326.022 229.512 326.022C232.06 326.022 234.182 325.173 235.88 323.05C238.003 321.352 237.579 318.38 234.607 317.956Z" fill="#FFE3A6"/>
<path d="M266.447 271.257C266.022 269.983 265.173 268.71 264.324 267.861C265.173 265.313 264.749 262.766 261.777 261.493C260.079 260.644 258.381 260.644 256.682 261.917C256.258 262.342 256.258 262.766 255.833 263.191C253.711 262.342 250.739 263.615 249.465 265.313C247.343 268.285 248.616 272.955 252.437 274.229C255.409 275.078 257.956 274.229 260.079 272.531C260.928 273.38 261.777 273.804 263.05 274.229C265.173 274.653 267.296 272.955 266.447 271.257Z" fill="#FFE3A6"/>
<path d="M254.135 320.927C251.163 320.927 248.192 322.626 248.192 326.022C247.767 326.871 247.343 327.72 247.343 328.994C247.343 330.692 249.041 331.965 250.314 331.965C254.135 331.965 256.258 328.569 257.107 325.173C257.531 323.05 256.258 320.927 254.135 320.927Z" fill="#FFE3A6"/>
<path d="M446.025 236.021C444.327 236.021 443.053 236.021 441.355 236.87C440.081 237.719 439.657 238.992 439.657 240.266C439.232 240.69 438.808 240.69 438.808 241.115C437.109 242.813 438.383 245.785 440.506 245.785C443.477 245.785 446.449 244.511 448.147 241.964C450.27 239.841 448.996 236.445 446.025 236.021Z" fill="#FFE3A6"/>
<path d="M415.883 194.841C413.76 195.69 413.336 197.813 414.185 199.511C414.185 203.756 421.402 208.851 423.949 203.332C425.647 199.086 420.128 193.143 415.883 194.841Z" fill="#FFE3A6"/>
<path d="M348.382 236.021C345.835 234.323 341.165 234.323 339.467 236.87C337.344 237.719 336.07 239.841 337.344 242.389C338.618 244.936 341.165 245.785 344.137 245.36C346.684 244.936 348.806 243.662 350.08 241.54C350.929 239.417 350.08 236.87 348.382 236.021Z" fill="#FFE3A6"/>
<path d="M280.032 311.163C277.485 309.465 272.815 309.465 271.117 312.012C268.994 312.861 267.72 314.984 268.994 317.531C270.268 320.078 272.815 320.927 275.786 320.503C278.334 320.078 280.456 318.805 281.73 316.682C282.579 314.559 281.73 312.012 280.032 311.163Z" fill="#FFE3A6"/>
</svg>
